<?xml version="1.0" standalone="no"?>
<!DOCTYPE svg PUBLIC "-//W3C//DTD SVG 20010904//EN"
 "http://www.w3.org/TR/2001/REC-SVG-20010904/DTD/svg10.dtd">
<svg version="1.0" xmlns="http://www.w3.org/2000/svg"
 width="300.000000pt" height="300.000000pt" viewBox="0 0 300.000000 300.000000"
 preserveAspectRatio="xMidYMid meet">
<metadata>
Created by potrace 1.10, written by Peter Selinger 2001-2011
</metadata>
<g transform="translate(0.000000,300.000000) scale(0.100000,-0.100000)"
fill="#000000" stroke="none">
<path d="M1027 1892 c-15 -15 -38 -29 -52 -30 -14 -1 -35 -7 -46 -13 -21 -11
-58 -81 -59 -111 0 -9 -18 -31 -41 -49 -22 -17 -45 -43 -50 -55 -4 -13 -23
-33 -40 -43 -33 -20 -59 -67 -59 -106 0 -25 22 -46 65 -64 19 -7 35 -23 42
-41 6 -17 25 -38 41 -47 18 -11 40 -37 53 -66 25 -52 35 -61 89 -72 19 -4 46
-20 61 -36 22 -24 35 -29 73 -29 86 0 117 40 156 195 12 50 24 92 26 95 8 7
409 10 420 2 7 -4 22 -47 34 -97 39 -158 69 -195 155 -195 44 0 55 4 80 30 16
17 37 30 47 30 39 0 80 31 99 75 11 24 33 54 50 66 16 11 41 38 54 59 14 22
34 40 46 42 12 2 31 16 43 31 20 27 20 29 3 58 -9 17 -17 37 -17 45 0 8 -13
20 -30 25 -18 7 -38 26 -52 51 -13 22 -34 46 -48 53 -18 9 -31 30 -43 67 -19
62 -48 93 -93 102 -17 4 -42 18 -54 32 -19 19 -33 24 -75 24 -58 0 -83 -18
-109 -80 -14 -34 -47 -166 -60 -242 l-7 -38 -122 -1 c-265 -2 -316 -1 -325 5
-6 3 -13 30 -17 59 -11 84 -45 209 -67 245 -25 41 -46 52 -100 52 -35 0 -50
-6 -71 -28z m120 0 c20 -12 43 -78 69 -192 27 -119 30 -160 11 -160 -8 0 -17
25 -24 67 -7 36 -18 73 -27 81 -39 40 -61 -25 -59 -178 2 -190 63 -256 98
-106 l13 56 -44 0 c-42 0 -44 1 -44 30 l0 30 360 0 360 0 0 -30 c0 -28 -2 -30
-41 -30 l-41 0 7 -47 c14 -96 58 -121 84 -48 19 52 21 281 3 313 -28 49 -62 9
-77 -90 -5 -33 -12 -48 -22 -48 -19 0 -15 25 28 195 39 153 47 165 103 165 40
0 46 -3 58 -30 11 -26 18 -30 55 -30 53 0 78 -29 94 -111 10 -51 15 -59 34
-59 28 0 53 -28 61 -68 6 -29 10 -32 45 -32 22 0 39 -4 39 -10 0 -5 -16 -10
-35 -10 -24 0 -35 -5 -35 -15 0 -10 10 -15 34 -15 39 0 50 -11 41 -40 -5 -15
-15 -20 -44 -20 -37 0 -39 -2 -45 -38 -6 -42 -26 -65 -67 -81 -19 -7 -28 -19
-33 -43 -11 -60 -31 -78 -86 -78 -40 0 -50 -4 -55 -20 -17 -55 -88 -69 -129
-25 -25 27 -60 128 -78 224 l-12 61 -245 0 -246 0 -22 -102 c-36 -166 -76
-222 -147 -204 -15 4 -35 20 -44 36 -15 26 -22 30 -63 30 -54 0 -63 9 -81 73
-9 34 -17 47 -31 47 -27 0 -65 43 -72 83 -6 33 -10 36 -44 39 -31 3 -36 7 -39
31 -3 26 -1 27 37 27 30 0 41 4 41 15 0 10 -11 15 -35 15 -19 0 -35 5 -35 10
0 6 15 10 34 10 29 0 35 4 41 28 11 45 33 72 60 72 19 0 26 7 31 28 27 120 43
142 102 142 31 0 40 5 54 30 14 25 23 30 55 30 21 0 43 -4 50 -8z"/>
<path d="M1046 1833 c-53 -167 -53 -437 0 -605 16 -48 16 -48 60 -48 24 0 44
2 44 5 0 3 -12 44 -27 92 -24 79 -27 103 -27 243 0 137 3 166 27 253 15 53 27
99 27 102 0 3 -20 5 -44 5 -44 0 -44 0 -60 -47z m40 -66 c-17 -68 -25 -142
-30 -257 -3 -67 11 -160 39 -265 7 -27 7 -29 -8 -17 -57 48 -64 488 -9 597 22
43 26 15 8 -58z"/>
<path d="M1855 1863 c65 -166 72 -453 14 -621 -10 -30 -19 -57 -19 -59 0 -2
21 -3 47 -1 l47 3 18 59 c41 135 47 354 14 512 -25 119 -28 124 -82 124 -40 0
-45 -2 -39 -17z m91 -120 c23 -95 23 -354 0 -442 -9 -36 -19 -67 -21 -70 -14
-13 -13 14 1 90 17 83 24 289 12 359 -6 36 -24 119 -34 155 -5 19 -5 19 10 -2
9 -11 23 -52 32 -90z"/>
<path d="M931 1802 c-5 -10 -17 -56 -27 -102 -22 -110 -15 -327 13 -410 18
-54 19 -55 61 -58 23 -2 42 0 42 5 -1 4 -7 35 -15 68 -32 130 -27 367 11 493
6 20 3 22 -34 22 -30 0 -44 -5 -51 -18z m44 -39 c-2 -16 -9 -62 -15 -103 -14
-94 -11 -222 6 -314 11 -55 11 -72 1 -78 -25 -16 -40 52 -45 202 -6 190 14
320 48 320 5 0 7 -12 5 -27z"/>
<path d="M1997 1763 c23 -96 28 -304 9 -409 -8 -50 -18 -98 -22 -108 -5 -13 1
-16 34 -16 22 0 45 6 52 14 56 69 55 494 -1 563 -7 7 -28 13 -49 13 l-37 0 14
-57z m63 13 c0 -1 5 -28 10 -59 33 -176 7 -497 -36 -454 -4 4 -1 54 6 112 12
100 10 217 -6 358 -6 51 -5 57 10 51 9 -3 16 -7 16 -8z"/>
<path d="M837 1648 c-9 -7 -23 -39 -29 -70 -21 -101 9 -218 57 -218 7 0 10 50
10 150 0 153 -3 163 -38 138z"/>
<path d="M2132 1543 c1 -65 -2 -133 -6 -150 -6 -28 -5 -33 11 -33 27 0 38 11
51 49 23 66 9 224 -22 243 -31 21 -35 8 -34 -109z"/>
</g>
</svg>
