<?xml version="1.0" standalone="no"?>
<!DOCTYPE svg PUBLIC "-//W3C//DTD SVG 20010904//EN"
 "http://www.w3.org/TR/2001/REC-SVG-20010904/DTD/svg10.dtd">
<svg version="1.0" xmlns="http://www.w3.org/2000/svg"
 width="300.000000pt" height="300.000000pt" viewBox="0 0 300.000000 300.000000"
 preserveAspectRatio="xMidYMid meet">
<metadata>
Created by potrace 1.10, written by Peter Selinger 2001-2011
</metadata>
<g transform="translate(0.000000,300.000000) scale(0.100000,-0.100000)"
fill="#000000" stroke="none">
<path d="M899 1976 c-2 -2 -24 -6 -49 -9 -48 -6 -104 -30 -93 -40 3 -4 -1 -7
-10 -7 -9 0 -22 -8 -29 -19 -7 -10 -51 -43 -98 -74 -85 -55 -172 -131 -200
-175 l-15 -23 -22 21 c-19 17 -26 18 -42 9 -41 -26 -75 -139 -41 -139 5 0 7 7
3 16 -6 16 36 114 49 114 10 0 48 -51 48 -64 -1 -6 -9 -1 -19 12 -11 12 -21
22 -24 22 -3 0 -15 -16 -27 -35 -16 -26 -19 -39 -11 -52 9 -16 12 -14 23 15
17 44 32 41 24 -5 -17 -101 -11 -142 27 -184 29 -34 111 -87 180 -117 16 -7
64 -39 106 -71 98 -75 158 -96 254 -88 74 5 130 23 121 38 -6 10 25 0 43 -13
14 -11 40 1 66 30 14 15 16 25 9 39 -9 16 -8 54 1 104 2 10 9 24 16 33 7 8 10
19 8 24 -3 4 -2 14 2 21 6 10 12 9 25 -5 27 -26 94 -24 135 5 l34 24 41 -21
c51 -27 76 -28 127 -2 l40 21 29 -21 c23 -17 40 -20 82 -17 29 2 61 7 71 12
10 4 23 2 32 -5 11 -10 20 -8 41 9 29 23 60 20 80 -7 10 -14 15 -13 39 6 34
27 49 28 75 2 19 -19 22 -19 46 -4 24 16 27 16 70 -6 31 -15 55 -20 75 -16 22
4 29 2 29 -9 0 -20 36 -19 44 0 3 8 14 15 25 15 37 0 34 39 -8 143 l-40 97 24
0 c20 0 28 -11 51 -70 15 -39 29 -69 30 -67 2 2 14 32 28 68 20 55 28 64 51
67 20 3 26 0 22 -10 -3 -7 -26 -65 -52 -128 -55 -137 -68 -151 -133 -144 -38
4 -43 3 -29 -6 23 -15 123 -7 120 9 -2 6 7 11 20 11 18 0 25 10 41 63 11 34
27 80 37 102 31 73 31 78 0 113 -17 18 -32 32 -35 32 -3 0 -20 -13 -39 -29
l-33 -30 -33 31 c-29 28 -35 29 -57 18 -18 -10 -30 -11 -49 -2 -37 17 -61 15
-104 -10 l-38 -22 -29 21 c-26 18 -41 20 -144 18 -63 -2 -123 -6 -134 -11 -10
-4 -26 -2 -36 4 -14 9 -22 7 -36 -9 -22 -25 -52 -24 -81 2 -20 20 -23 20 -29
5 -8 -22 -47 -20 -75 4 l-24 20 27 -9 c22 -8 30 -6 52 15 19 20 23 31 17 47
-4 12 -6 38 -4 57 8 66 -24 78 -218 80 -14 0 -34 8 -45 17 -12 12 -39 19 -79
21 -52 3 -64 0 -89 -22 -39 -34 -45 -33 -41 10 2 22 -2 37 -10 40 -7 3 -19 18
-25 34 -19 46 -50 60 -133 60 -41 0 -76 -2 -78 -4z m177 -91 c7 -27 18 -59 25
-71 16 -30 -17 -88 -45 -80 -11 3 -25 2 -30 -3 -30 -23 -59 -19 -108 15 -28
19 -54 34 -58 34 -15 0 -59 -41 -78 -73 -11 -17 -25 -63 -31 -102 -5 -38 -13
-80 -17 -93 -6 -22 -5 -21 60 9 79 37 128 34 177 -12 18 -17 42 -29 58 -29 57
0 121 -63 121 -120 0 -33 -19 -90 -30 -90 -13 0 -60 86 -60 109 0 12 -4 21 -8
21 -4 0 -8 9 -9 20 -1 11 3 20 8 20 17 0 49 -20 49 -31 0 -6 -4 -7 -10 -4 -5
3 -10 1 -10 -4 0 -6 6 -11 14 -11 14 0 26 -21 26 -46 0 -12 -4 -12 -21 -4 -19
11 -20 10 -9 -10 16 -30 34 -20 38 22 2 28 -3 43 -25 68 -32 36 -106 60 -96
31 3 -9 -9 1 -28 22 -64 72 -159 59 -314 -43 -16 -11 -46 -20 -65 -20 l-35 1
38 14 c45 16 60 33 86 100 11 28 20 41 20 30 0 -11 -8 -39 -19 -63 -11 -23
-15 -40 -9 -36 19 11 41 76 50 144 4 36 11 74 15 85 6 18 4 17 -22 -5 l-29
-25 29 32 c16 18 32 30 36 28 3 -2 14 9 24 25 9 17 26 35 37 40 19 11 19 12 1
38 -25 37 -18 65 14 59 16 -3 23 0 21 7 -7 21 -38 17 -70 -9 -17 -14 -77 -59
-132 -100 -55 -41 -116 -91 -135 -111 -19 -21 -27 -32 -17 -25 24 19 21 6 -7
-36 -14 -19 -22 -42 -19 -51 4 -9 2 -13 -3 -9 -6 4 -9 -6 -6 -24 3 -22 0 -29
-12 -29 -10 0 -16 9 -17 23 -1 18 -3 16 -9 -8 -17 -65 -12 -100 18 -122 41
-30 109 -63 116 -56 3 4 6 1 6 -6 0 -7 5 -9 10 -6 13 8 66 -25 105 -66 70 -72
149 -110 230 -108 31 0 36 2 20 9 -11 5 -35 9 -53 9 -33 1 -109 28 -101 36 3
2 23 -2 44 -10 80 -28 190 -10 247 42 9 8 21 12 26 9 6 -3 22 8 36 25 33 39
34 26 0 -22 -46 -67 -147 -119 -229 -119 -62 0 -134 30 -212 89 -43 32 -114
77 -158 100 -112 58 -139 84 -137 130 3 51 30 140 55 181 33 57 56 78 172 161
61 44 126 93 146 110 40 33 116 48 233 45 l60 -1 12 -50z m-282 -43 c3 -5 -12
-25 -32 -44 -48 -46 -132 -102 -132 -88 0 5 3 10 8 10 9 0 79 66 109 103 23
28 38 33 47 19z m506 -37 c0 -10 -11 -15 -35 -15 -28 0 -35 -4 -35 -20 0 -16
7 -20 35 -20 24 0 35 -5 35 -15 0 -10 -11 -15 -35 -15 -32 0 -35 -2 -35 -30 0
-20 -5 -30 -15 -30 -12 0 -15 16 -15 80 l0 80 50 0 c38 0 50 -4 50 -15z m45
-65 c0 -64 -3 -80 -15 -80 -12 0 -14 14 -12 80 2 53 8 80 15 80 8 0 12 -25 12
-80z m-601 -8 c-43 -40 -67 -71 -79 -104 -18 -52 -55 -88 -89 -88 -58 0 -62
76 -8 130 14 13 15 12 8 -10 -4 -14 -10 -34 -13 -45 -3 -11 5 -4 19 15 13 19
38 44 56 55 18 11 60 39 95 62 34 23 64 42 67 42 3 0 -23 -25 -56 -57z m444
-88 l26 -23 28 20 c15 11 32 18 37 15 10 -6 13 -96 5 -139 -5 -24 -10 -28 -27
-22 -34 11 -58 7 -77 -10 -16 -15 -39 -17 -50 -5 -18 20 -71 50 -88 50 -11 0
-41 12 -68 27 -39 22 -62 28 -114 28 l-65 0 3 40 c2 22 13 55 25 73 25 37 50
37 99 2 37 -27 94 -25 155 5 36 18 53 34 59 53 6 23 9 19 16 -32 7 -45 16 -65
36 -82z m266 120 c9 -8 16 -24 16 -35 0 -16 -7 -19 -40 -19 -22 0 -40 -4 -40
-10 0 -10 6 -12 47 -14 36 -2 27 -21 -11 -24 -40 -4 -66 18 -66 55 0 53 59 82
94 47z m73 -6 l10 -23 12 23 c6 12 21 22 33 22 l21 0 -21 -23 c-27 -29 -28
-49 -2 -72 23 -21 26 -35 6 -35 -8 0 -23 12 -34 27 -19 26 -20 26 -26 6 -7
-21 -34 -38 -44 -28 -3 3 5 19 17 36 20 27 21 33 8 47 -27 32 -29 42 -9 42 10
0 23 -10 29 -22z m-848 -173 c-6 -21 -23 -51 -39 -66 -16 -17 -23 -30 -16 -33
10 -4 1 -14 -57 -62 -16 -13 -21 -12 -51 12 -32 26 -38 55 -15 70 5 3 9 17 9
31 0 25 1 25 25 9 49 -32 92 -17 126 44 27 48 32 47 18 -5z m695 -57 c-8 -120
-23 -148 -81 -148 -45 0 -69 14 -89 51 -17 35 -18 34 14 43 15 5 22 3 22 -7 0
-8 9 -22 20 -32 17 -15 24 -16 45 -7 24 11 25 15 25 107 l0 95 25 0 26 0 -7
-102z m161 40 c84 -38 66 -170 -26 -184 -31 -5 -42 -1 -70 24 -28 25 -34 37
-34 70 0 42 23 77 60 93 28 11 40 11 70 -3z m125 -57 c0 -78 14 -100 49 -81
24 12 24 14 25 90 1 48 4 55 21 55 19 0 20 -7 20 -94 0 -82 -2 -94 -17 -97
-10 -1 -18 2 -18 7 0 6 -8 6 -19 -1 -30 -16 -59 -12 -81 10 -17 17 -20 33 -20
100 0 73 2 80 20 80 18 0 20 -7 20 -69z m250 44 c0 -15 -6 -25 -15 -25 -26 0
-47 -45 -44 -97 3 -43 1 -48 -19 -51 -21 -3 -22 -1 -22 92 0 89 1 96 20 96 11
0 20 -5 20 -12 0 -8 6 -6 17 5 25 24 43 21 43 -8z m60 4 c0 -4 13 -1 29 9 24
13 34 14 55 4 35 -16 48 -52 44 -126 -3 -53 -6 -61 -23 -61 -18 0 -21 8 -25
70 -5 64 -7 70 -29 73 -35 5 -44 -11 -45 -80 -1 -57 -3 -63 -23 -66 -22 -3
-23 -1 -23 91 0 51 3 96 6 100 8 7 34 -3 34 -14z m275 11 c15 -6 32 -24 40
-45 26 -61 23 -65 -50 -65 -66 0 -81 -10 -44 -30 14 -8 29 -8 49 -1 41 14 61
-10 28 -33 -46 -32 -108 -13 -134 42 -22 46 -6 105 34 126 33 18 43 19 77 6z
m-1321 -74 c19 -8 43 -30 56 -52 13 -22 34 -51 47 -65 l24 -26 -58 -5 c-33 -3
-78 0 -103 8 -25 7 -63 15 -85 19 -39 6 -95 38 -85 49 3 2 19 -1 35 -8 26 -12
52 -20 134 -42 43 -12 -52 28 -111 46 -38 12 -68 26 -68 32 0 17 69 2 148 -32
39 -16 85 -30 103 -30 42 0 31 11 -18 17 -21 3 -68 20 -106 38 l-67 33 42 15
c55 20 71 20 112 3z m-438 -65 c35 -40 114 -77 125 -60 9 15 72 -1 122 -32 31
-18 67 -25 67 -13 0 3 -10 15 -22 26 l-23 19 34 -5 c96 -17 136 -38 94 -50
-79 -22 -178 -10 -238 30 -12 8 -29 12 -38 8 -22 -8 -141 33 -162 56 -17 19
-15 50 5 50 5 0 22 -13 36 -29z m574 -111 c24 -24 25 -47 3 -72 -24 -26 -47
-24 -33 3 18 32 4 34 -34 5 -46 -35 -84 -41 -155 -26 -62 13 -89 25 -79 35 3
3 62 11 132 18 104 9 123 13 114 25 -9 10 -8 16 3 23 20 13 27 11 49 -11z m72
-172 c-12 -12 -25 -18 -29 -14 -4 4 3 16 16 27 31 25 41 15 13 -13z"/>
<path d="M1031 1912 c-1 -7 6 -29 14 -49 8 -19 15 -44 15 -55 0 -33 -27 -3
-34 37 -9 45 -42 68 -93 62 l-38 -4 41 -1 c45 -2 65 -19 82 -68 10 -30 2 -54
-18 -54 -12 0 -30 51 -23 63 3 7 -4 3 -16 -8 -23 -19 -23 -19 -61 3 -48 27
-82 30 -73 5 8 -24 34 -53 46 -53 6 0 0 11 -13 25 -13 14 -18 25 -12 25 7 0
12 -4 12 -8 0 -13 56 -42 82 -42 13 0 34 -7 47 -16 21 -15 21 -18 7 -26 -19
-11 -36 -3 -36 18 0 9 -10 14 -27 14 l-28 0 30 -25 c36 -29 61 -31 77 -6 9 15
15 17 30 7 16 -9 22 -8 32 6 11 15 10 26 -4 65 -25 70 -39 100 -39 85z"/>
<path d="M615 1629 c-22 -23 -31 -37 -20 -31 26 13 82 72 69 72 -6 0 -28 -19
-49 -41z"/>
<path d="M1397 1754 c-14 -14 -6 -24 19 -24 16 0 24 5 22 13 -5 14 -31 21 -41
11z"/>
<path d="M1462 1518 c-20 -20 -14 -65 10 -82 12 -9 26 -16 30 -16 15 0 48 40
48 59 0 41 -59 68 -88 39z"/>
<path d="M2188 1529 c-31 -18 -20 -29 29 -29 45 0 46 0 28 20 -20 22 -32 24
-57 9z"/>
<path d="M875 1463 c15 -15 65 -25 65 -13 0 5 -6 10 -12 10 -7 0 -24 3 -38 6
-17 5 -22 3 -15 -3z"/>
<path d="M555 1896 c-19 -14 -19 -16 -2 -33 16 -16 18 -16 34 0 15 15 16 19 2
32 -13 13 -17 13 -34 1z"/>
<path d="M2548 1334 c-36 -19 -36 -28 1 -21 31 6 71 -1 71 -13 0 -13 -43 -20
-56 -9 -7 6 -21 9 -31 7 -15 -3 -14 -7 10 -22 20 -14 31 -16 39 -8 6 6 16 8
23 5 18 -6 29 35 14 53 -7 8 -18 13 -25 10 -7 -3 -14 -1 -16 4 -2 5 -15 2 -30
-6z"/>
<path d="M1180 1197 c0 -5 4 -16 10 -26 7 -14 1 -26 -31 -57 l-39 -38 -30 17
c-17 10 -30 13 -30 8 0 -19 58 -43 79 -32 24 14 71 69 71 85 0 14 -29 56 -30
43z"/>
<path d="M662 1108 c-22 -22 -7 -48 28 -48 14 0 21 32 9 46 -14 17 -22 17 -37
2z"/>
</g>
</svg>
